<svg width="61px" height="54px" viewBox="0 0 61 54" version="1.1" xmlns="http://www.w3.org/2000/svg" xmlns:xlink="http://www.w3.org/1999/xlink">
    <!-- Generator: Sketch 39 (31667) - http://www.bohemiancoding.com/sketch -->
    <desc>Created with Sketch.</desc>
    <defs/>
    <g id="icon-messaging" stroke="none" stroke-width="1" fill="none" fill-rule="evenodd" transform="translate(0.517117, 0.000000)">
        <g id="Group-3" transform="translate(0.000000, 0.004370)" fill="#0087FF">
            <path d="M8.53908871,0.0830261345 C3.82303134,0.0830261345 0.000687471922,3.72962136 0.000687471922,8.22614201 L0.000687471922,35.4630839 C0.000687471922,39.9596046 3.82303134,43.6061998 8.53908871,43.6061998 L11.4585528,43.6061998 C12.7235011,43.6061998 13.7501259,44.5850342 13.7501259,45.7910981 L13.7501259,50.1608946 C13.7501259,52.107639 16.2181501,53.0821036 17.6618411,51.7056177 L26.1567024,44.8865502 C27.0160423,44.0672133 28.182453,43.6061998 29.3969868,43.6061998 L51.0408944,43.6061998 C55.7569517,43.6061998 59.5815872,39.9596046 59.5815872,35.4630839 L59.5815872,8.22614201 C59.5815872,3.72962136 55.7569517,0.0830261345 51.0408944,0.0830261345 L8.53908871,0.0830261345 Z M20.6241576,21.844613 C20.6241576,24.2589256 18.5731997,26.2144095 16.0410115,26.2144095 C13.5088232,26.2144095 11.4578653,24.2589256 11.4578653,21.844613 C11.4578653,19.4303004 13.5088232,17.4748164 16.0410115,17.4748164 C18.5731997,17.4748164 20.6241576,19.4303004 20.6241576,21.844613 Z M34.373596,21.844613 C34.373596,24.2589256 32.3226381,26.2144095 29.7904498,26.2144095 C27.2582616,26.2144095 25.2073037,24.2589256 25.2073037,21.844613 C25.2073037,19.4303004 27.2582616,17.4748164 29.7904498,17.4748164 C32.3226381,17.4748164 34.373596,19.4303004 34.373596,21.844613 Z M48.1230344,21.844613 C48.1230344,24.2589256 46.0720765,26.2144095 43.5398882,26.2144095 C41.0077,26.2144095 38.9567421,24.2589256 38.9567421,21.844613 C38.9567421,19.4303004 41.0077,17.4748164 43.5398882,17.4748164 C46.0720765,17.4748164 48.1230344,19.4303004 48.1230344,21.844613 Z" id="Combined-Shape"/>
        </g>
    </g>
</svg>